{
    "asset" : {
        "generator" : "Khronos glTF Blender I/O v1.6.16",
        "version" : "2.0"
    },
    "scene" : 0,
    "scenes" : [
        {
            "name" : "Scene",
            "nodes" : [
                0,
                1,
                2
            ]
        }
    ],
    "nodes" : [
        {
            "name" : "Light",
            "rotation" : [
                0.16907575726509094,
                0.7558803558349609,
                -0.27217137813568115,
                0.570947527885437
            ],
            "translation" : [
                4.076245307922363,
                5.903861999511719,
                -1.0054539442062378
            ]
        },
        {
            "name" : "Camera",
            "rotation" : [
                0.483536034822464,
                0.33687159419059753,
                -0.20870360732078552,
                0.7804827094078064
            ],
            "translation" : [
                7.358891487121582,
                4.958309173583984,
                6.925790786743164
            ]
        },
        {
            "mesh" : 0,
            "name" : "Box003",
            "rotation" : [
                0,
                1,
                0,
                -4.371138828673793e-08
            ],
            "scale" : [
                4.385019302368164,
                4.385019302368164,
                4.385019302368164
            ]
        }
    ],
    "materials" : [
        {
            "doubleSided" : true,
            "name" : "Material #25",
            "pbrMetallicRoughness" : {
                "baseColorFactor" : [
                    0.5879999995231628,
                    0.5879999995231628,
                    0.5879999995231628,
                    1
                ],
                "metallicFactor" : 0.5136363506317139,
                "roughnessFactor" : 0.8040335178375244
            }
        },
        {
            "doubleSided" : true,
            "name" : "Material #26",
            "pbrMetallicRoughness" : {
                "baseColorFactor" : [
                    0.5879999995231628,
                    0.5879999995231628,
                    0.5879999995231628,
                    1
                ],
                "roughnessFactor" : 0.858578622341156
            }
        },
        {
            "doubleSided" : true,
            "name" : "08 - Default",
            "pbrMetallicRoughness" : {
                "baseColorFactor" : [
                    0.5882353186607361,
                    0.5882353186607361,
                    0.5882353186607361,
                    1
                ],
                "roughnessFactor" : 0.858578622341156
            }
        },
        {
            "doubleSided" : true,
            "name" : "01 - Default",
            "pbrMetallicRoughness" : {
                "baseColorFactor" : [
                    0.1725490242242813,
                    0.5960784554481506,
                    1,
                    1
                ],
                "roughnessFactor" : 0.858578622341156
            }
        },
        {
            "doubleSided" : true,
            "name" : "02 - Default",
            "pbrMetallicRoughness" : {
                "baseColorFactor" : [
                    0.8666667342185974,
                    0.2862745225429535,
                    0,
                    1
                ],
                "roughnessFactor" : 0.858578622341156
            }
        },
        {
            "doubleSided" : true,
            "name" : "03 - Default",
            "pbrMetallicRoughness" : {
                "baseColorFactor" : [
                    0.11764706671237946,
                    0.11764706671237946,
                    0.11764706671237946,
                    1
                ],
                "roughnessFactor" : 0.858578622341156
            }
        }
    ],
    "meshes" : [
        {
            "name" : "Mesh.002",
            "primitives" : [
                {
                    "attributes" : {
                        "POSITION" : 0,
                        "NORMAL" : 1,
                        "TEXCOORD_0" : 2
                    },
                    "indices" : 3,
                    "material" : 0
                },
                {
                    "attributes" : {
                        "POSITION" : 4,
                        "NORMAL" : 5,
                        "TEXCOORD_0" : 6
                    },
                    "indices" : 7,
                    "material" : 1
                },
                {
                    "attributes" : {
                        "POSITION" : 8,
                        "NORMAL" : 9,
                        "TEXCOORD_0" : 10
                    },
                    "indices" : 11,
                    "material" : 2
                },
                {
                    "attributes" : {
                        "POSITION" : 12,
                        "NORMAL" : 13,
                        "TEXCOORD_0" : 14
                    },
                    "indices" : 15,
                    "material" : 3
                },
                {
                    "attributes" : {
                        "POSITION" : 16,
                        "NORMAL" : 17,
                        "TEXCOORD_0" : 18
                    },
                    "indices" : 19,
                    "material" : 4
                },
                {
                    "attributes" : {
                        "POSITION" : 20,
                        "NORMAL" : 21,
                        "TEXCOORD_0" : 22
                    },
                    "indices" : 23,
                    "material" : 5
                }
            ]
        }
    ],
    "accessors" : [
        {
            "bufferView" : 0,
            "componentType" : 5126,
            "count" : 315,
            "max" : [
                13.111295700073242,
                3.04237961769104,
                5.086171627044678
            ],
            "min" : [
                -13.041675567626953,
                -3.426241159439087,
                -3.756925106048584
            ],
            "type" : "VEC3"
        },
        {
            "bufferView" : 1,
            "componentType" : 5126,
            "count" : 315,
            "type" : "VEC3"
        },
        {
            "bufferView" : 2,
            "componentType" : 5126,
            "count" : 315,
            "type" : "VEC2"
        },
        {
            "bufferView" : 3,
            "componentType" : 5123,
            "count" : 444,
            "type" : "SCALAR"
        },
        {
            "bufferView" : 4,
            "componentType" : 5126,
            "count" : 4,
            "max" : [
                0.03481149673461914,
                3.04237961769104,
                5.086171627044678
            ],
            "min" : [
                -2.424055576324463,
                3.04237961769104,
                -3.71181058883667
            ],
            "type" : "VEC3"
        },
        {
            "bufferView" : 5,
            "componentType" : 5126,
            "count" : 4,
            "type" : "VEC3"
        },
        {
            "bufferView" : 6,
            "componentType" : 5126,
            "count" : 4,
            "type" : "VEC2"
        },
        {
            "bufferView" : 7,
            "componentType" : 5123,
            "count" : 6,
            "type" : "SCALAR"
        },
        {
            "bufferView" : 8,
            "componentType" : 5126,
            "count" : 67,
            "max" : [
                4.622608184814453,
                3.615679979324341,
                15.004858016967773
            ],
            "min" : [
                -4.732039451599121,
                -0.2580573558807373,
                6.447214603424072
            ],
            "type" : "VEC3"
        },
        {
            "bufferView" : 9,
            "componentType" : 5126,
            "count" : 67,
            "type" : "VEC3"
        },
        {
            "bufferView" : 10,
            "componentType" : 5126,
            "count" : 67,
            "type" : "VEC2"
        },
        {
            "bufferView" : 11,
            "componentType" : 5123,
            "count" : 75,
            "type" : "SCALAR"
        },
        {
            "bufferView" : 12,
            "componentType" : 5126,
            "count" : 12,
            "max" : [
                4.52787971496582,
                3.5929858684539795,
                14.852472305297852
            ],
            "min" : [
                -4.637268543243408,
                -0.12146353721618652,
                6.608218669891357
            ],
            "type" : "VEC3"
        },
        {
            "bufferView" : 13,
            "componentType" : 5126,
            "count" : 12,
            "type" : "VEC3"
        },
        {
            "bufferView" : 14,
            "componentType" : 5126,
            "count" : 12,
            "type" : "VEC2"
        },
        {
            "bufferView" : 15,
            "componentType" : 5123,
            "count" : 18,
            "type" : "SCALAR"
        },
        {
            "bufferView" : 16,
            "componentType" : 5126,
            "count" : 112,
            "max" : [
                14.31257438659668,
                3.119281530380249,
                0.03342209756374359
            ],
            "min" : [
                -14.242955207824707,
                -3.2591781616210938,
                -4.681107044219971
            ],
            "type" : "VEC3"
        },
        {
            "bufferView" : 17,
            "componentType" : 5126,
            "count" : 112,
            "type" : "VEC3"
        },
        {
            "bufferView" : 18,
            "componentType" : 5126,
            "count" : 112,
            "type" : "VEC2"
        },
        {
            "bufferView" : 19,
            "componentType" : 5123,
            "count" : 144,
            "type" : "SCALAR"
        },
        {
            "bufferView" : 20,
            "componentType" : 5126,
            "count" : 565,
            "max" : [
                14.31257438659668,
                3.615679979324341,
                16.173948287963867
            ],
            "min" : [
                -14.242955207824707,
                -3.426241159439087,
                -6.225179195404053
            ],
            "type" : "VEC3"
        },
        {
            "bufferView" : 21,
            "componentType" : 5126,
            "count" : 565,
            "type" : "VEC3"
        },
        {
            "bufferView" : 22,
            "componentType" : 5126,
            "count" : 565,
            "type" : "VEC2"
        },
        {
            "bufferView" : 23,
            "componentType" : 5123,
            "count" : 1065,
            "type" : "SCALAR"
        }
    ],
    "bufferViews" : [
        {
            "buffer" : 0,
            "byteLength" : 3780,
            "byteOffset" : 0
        },
        {
            "buffer" : 0,
            "byteLength" : 3780,
            "byteOffset" : 3780
        },
        {
            "buffer" : 0,
            "byteLength" : 2520,
            "byteOffset" : 7560
        },
        {
            "buffer" : 0,
            "byteLength" : 888,
            "byteOffset" : 10080
        },
        {
            "buffer" : 0,
            "byteLength" : 48,
            "byteOffset" : 10968
        },
        {
            "buffer" : 0,
            "byteLength" : 48,
            "byteOffset" : 11016
        },
        {
            "buffer" : 0,
            "byteLength" : 32,
            "byteOffset" : 11064
        },
        {
            "buffer" : 0,
            "byteLength" : 12,
            "byteOffset" : 11096
        },
        {
            "buffer" : 0,
            "byteLength" : 804,
            "byteOffset" : 11108
        },
        {
            "buffer" : 0,
            "byteLength" : 804,
            "byteOffset" : 11912
        },
        {
            "buffer" : 0,
            "byteLength" : 536,
            "byteOffset" : 12716
        },
        {
            "buffer" : 0,
            "byteLength" : 150,
            "byteOffset" : 13252
        },
        {
            "buffer" : 0,
            "byteLength" : 144,
            "byteOffset" : 13404
        },
        {
            "buffer" : 0,
            "byteLength" : 144,
            "byteOffset" : 13548
        },
        {
            "buffer" : 0,
            "byteLength" : 96,
            "byteOffset" : 13692
        },
        {
            "buffer" : 0,
            "byteLength" : 36,
            "byteOffset" : 13788
        },
        {
            "buffer" : 0,
            "byteLength" : 1344,
            "byteOffset" : 13824
        },
        {
            "buffer" : 0,
            "byteLength" : 1344,
            "byteOffset" : 15168
        },
        {
            "buffer" : 0,
            "byteLength" : 896,
            "byteOffset" : 16512
        },
        {
            "buffer" : 0,
            "byteLength" : 288,
            "byteOffset" : 17408
        },
        {
            "buffer" : 0,
            "byteLength" : 6780,
            "byteOffset" : 17696
        },
        {
            "buffer" : 0,
            "byteLength" : 6780,
            "byteOffset" : 24476
        },
        {
            "buffer" : 0,
            "byteLength" : 4520,
            "byteOffset" : 31256
        },
        {
            "buffer" : 0,
            "byteLength" : 2130,
            "byteOffset" : 35776
        }
    ],
    "buffers" : [
        {
            "byteLength" : 37908,
            "uri" : "data:application/octet-stream;base64,"
        }
    ]
}
